<?xml version="1.0" encoding="UTF-8" standalone="no"?>
<!DOCTYPE svg PUBLIC "-//W3C//DTD SVG 1.1//EN"
 "http://www.w3.org/Graphics/SVG/1.1/DTD/svg11.dtd">
<!-- Generated by graphviz version 2.40.1 (20161225.0304)
 -->
<!-- Title: dependencies Pages: 1 -->
<svg width="3080pt" height="290pt"
 viewBox="0.00 0.00 3080.00 290.00" xmlns="http://www.w3.org/2000/svg" xmlns:xlink="http://www.w3.org/1999/xlink">
<g id="graph0" class="graph" transform="scale(1 1) rotate(0) translate(4 286)">
<title>dependencies</title>
<polygon fill="#ffffff" stroke="transparent" points="-4,4 -4,-286 3076,-286 3076,4 -4,4"/>
<text text-anchor="start" x="1515.0091" y="-42.4" font-family="sans-serif" font-weight="bold" font-size="14.00" fill="#000000">Legend</text>
<polygon fill="#ffffb3" stroke="transparent" points="1302,-10 1302,-30 1322,-30 1322,-10 1302,-10"/>
<text text-anchor="start" x="1325.629" y="-15.4" font-family="sans-serif" font-size="14.00" fill="#000000"> &#160;Declarations</text>
<polygon fill="#8dd3c7" stroke="transparent" points="1415,-10 1415,-30 1435,-30 1435,-10 1415,-10"/>
<text text-anchor="start" x="1438.7251" y="-15.4" font-family="sans-serif" font-size="14.00" fill="#000000"> &#160;Module</text>
<polygon fill="#80b1d3" stroke="transparent" points="1501,-10 1501,-30 1521,-30 1521,-10 1501,-10"/>
<text text-anchor="start" x="1524.7812" y="-15.4" font-family="sans-serif" font-size="14.00" fill="#000000"> &#160;Bootstrap</text>
<polygon fill="#fdb462" stroke="transparent" points="1598,-10 1598,-30 1618,-30 1618,-10 1598,-10"/>
<text text-anchor="start" x="1621.6732" y="-15.4" font-family="sans-serif" font-size="14.00" fill="#000000"> &#160;Providers</text>
<polygon fill="#fb8072" stroke="transparent" points="1694,-10 1694,-30 1714,-30 1714,-10 1694,-10"/>
<text text-anchor="start" x="1717.7258" y="-15.4" font-family="sans-serif" font-size="14.00" fill="#000000"> &#160;Exports</text>
<g id="clust1" class="cluster">
<title>cluster_AppModule</title>
<polygon fill="none" stroke="#000000" stroke-dasharray="1,5" points="8,-70 8,-274 2784,-274 2784,-70 8,-70"/>
</g>
<g id="clust2" class="cluster">
<title>cluster_AppModule_declarations</title>
<polygon fill="none" stroke="#000000" points="630,-78 630,-130 2520,-130 2520,-78 630,-78"/>
</g>
<g id="clust15" class="cluster">
<title>cluster_AppModule_imports</title>
<polygon fill="none" stroke="#000000" points="2528,-78 2528,-130 2776,-130 2776,-78 2528,-78"/>
</g>
<g id="clust16" class="cluster">
<title>cluster_AppModule_exports</title>
<polygon fill="none" stroke="#000000" points="873,-214 873,-266 1807,-266 1807,-214 873,-214"/>
</g>
<g id="clust17" class="cluster">
<title>cluster_AppModule_bootstrap</title>
<polygon fill="none" stroke="#000000" points="1815,-214 1815,-266 1939,-266 1939,-214 1815,-214"/>
</g>
<g id="clust18" class="cluster">
<title>cluster_AppModule_providers</title>
<polygon fill="none" stroke="#000000" points="16,-78 16,-130 622,-130 622,-78 16,-78"/>
</g>
<g id="clust25" class="cluster">
<title>cluster_MapModule</title>
<polygon fill="none" stroke="#000000" stroke-dasharray="1,5" points="2792,-138 2792,-206 3064,-206 3064,-138 2792,-138"/>
</g>
<g id="clust26" class="cluster">
<title>cluster_MapModule_declarations</title>
<polygon fill="none" stroke="#000000" points="2934,-146 2934,-198 3056,-198 3056,-146 2934,-146"/>
</g>
<g id="clust29" class="cluster">
<title>cluster_MapModule_exports</title>
<polygon fill="none" stroke="#000000" points="2800,-146 2800,-198 2926,-198 2926,-146 2800,-146"/>
</g>
<!-- AppComponent -->
<g id="node1" class="node">
<title>AppComponent</title>
<polygon fill="#ffffb3" stroke="#000000" points="2511.9399,-122 2406.0601,-122 2406.0601,-86 2511.9399,-86 2511.9399,-122"/>
<text text-anchor="middle" x="2459" y="-99.8" font-family="Times,serif" font-size="14.00" fill="#000000">AppComponent</text>
</g>
<!-- AppModule -->
<g id="node13" class="node">
<title>AppModule</title>
<polygon fill="#8dd3c7" stroke="#000000" points="1482.6571,-190 1479.6571,-194 1458.6571,-194 1455.6571,-190 1399.3429,-190 1399.3429,-154 1482.6571,-154 1482.6571,-190"/>
<text text-anchor="middle" x="1441" y="-167.8" font-family="Times,serif" font-size="14.00" fill="#000000">AppModule</text>
</g>
<!-- AppComponent&#45;&gt;AppModule -->
<g id="edge1" class="edge">
<title>AppComponent&#45;&gt;AppModule</title>
<path fill="none" stroke="#000000" d="M2459,-122.308C2459,-142.1455 2459,-171 2459,-171 2459,-171 1492.8047,-171 1492.8047,-171"/>
<polygon fill="#000000" stroke="#000000" points="1492.8047,-167.5001 1482.8047,-171 1492.8046,-174.5001 1492.8047,-167.5001"/>
</g>
<!-- ArtistsComponent -->
<g id="node2" class="node">
<title>ArtistsComponent</title>
<polygon fill="#ffffb3" stroke="#000000" points="2388.1611,-122 2269.8389,-122 2269.8389,-86 2388.1611,-86 2388.1611,-122"/>
<text text-anchor="middle" x="2329" y="-99.8" font-family="Times,serif" font-size="14.00" fill="#000000">ArtistsComponent</text>
</g>
<!-- ArtistsComponent&#45;&gt;AppModule -->
<g id="edge2" class="edge">
<title>ArtistsComponent&#45;&gt;AppModule</title>
<path fill="none" stroke="#000000" d="M2329,-122.1686C2329,-141.0898 2329,-168 2329,-168 2329,-168 1492.9354,-168 1492.9354,-168"/>
<polygon fill="#000000" stroke="#000000" points="1492.9354,-164.5001 1482.9354,-168 1492.9354,-171.5001 1492.9354,-164.5001"/>
</g>
<!-- ContactFormComponent -->
<g id="node3" class="node">
<title>ContactFormComponent</title>
<polygon fill="#ffffb3" stroke="#000000" points="2251.7133,-122 2096.2867,-122 2096.2867,-86 2251.7133,-86 2251.7133,-122"/>
<text text-anchor="middle" x="2174" y="-99.8" font-family="Times,serif" font-size="14.00" fill="#000000">ContactFormComponent</text>
</g>
<!-- ContactFormComponent&#45;&gt;AppModule -->
<g id="edge3" class="edge">
<title>ContactFormComponent&#45;&gt;AppModule</title>
<path fill="none" stroke="#000000" d="M2174,-122.2667C2174,-140.5552 2174,-166 2174,-166 2174,-166 1492.7753,-166 1492.7753,-166"/>
<polygon fill="#000000" stroke="#000000" points="1492.7754,-162.5001 1482.7753,-166 1492.7753,-169.5001 1492.7754,-162.5001"/>
</g>
<!-- CountdownTimerComponent -->
<g id="node4" class="node">
<title>CountdownTimerComponent</title>
<polygon fill="#ffffb3" stroke="#000000" points="2078.3752,-122 1897.6248,-122 1897.6248,-86 2078.3752,-86 2078.3752,-122"/>
<text text-anchor="middle" x="1988" y="-99.8" font-family="Times,serif" font-size="14.00" fill="#000000">CountdownTimerComponent</text>
</g>
<!-- CountdownTimerComponent&#45;&gt;AppModule -->
<g id="edge4" class="edge">
<title>CountdownTimerComponent&#45;&gt;AppModule</title>
<path fill="none" stroke="#000000" d="M1914.516,-122.0225C1914.516,-139.3734 1914.516,-163 1914.516,-163 1914.516,-163 1493.0214,-163 1493.0214,-163"/>
<polygon fill="#000000" stroke="#000000" points="1493.0214,-159.5001 1483.0214,-163 1493.0213,-166.5001 1493.0214,-159.5001"/>
</g>
<!-- HomeComponent -->
<g id="node5" class="node">
<title>HomeComponent</title>
<polygon fill="#ffffb3" stroke="#000000" points="1879.5451,-122 1764.4549,-122 1764.4549,-86 1879.5451,-86 1879.5451,-122"/>
<text text-anchor="middle" x="1822" y="-99.8" font-family="Times,serif" font-size="14.00" fill="#000000">HomeComponent</text>
</g>
<!-- HomeComponent&#45;&gt;AppModule -->
<g id="edge5" class="edge">
<title>HomeComponent&#45;&gt;AppModule</title>
<path fill="none" stroke="#000000" d="M1781.6541,-122.027C1781.6541,-138.3976 1781.6541,-160 1781.6541,-160 1781.6541,-160 1492.7709,-160 1492.7709,-160"/>
<polygon fill="#000000" stroke="#000000" points="1492.7709,-156.5001 1482.7709,-160 1492.7708,-163.5001 1492.7709,-156.5001"/>
</g>
<!-- ImageGalleryComponent -->
<g id="node6" class="node">
<title>ImageGalleryComponent</title>
<polygon fill="#ffffb3" stroke="#000000" points="1746.2907,-122 1587.7093,-122 1587.7093,-86 1746.2907,-86 1746.2907,-122"/>
<text text-anchor="middle" x="1667" y="-99.8" font-family="Times,serif" font-size="14.00" fill="#000000">ImageGalleryComponent</text>
</g>
<!-- ImageGalleryComponent&#45;&gt;AppModule -->
<g id="edge6" class="edge">
<title>ImageGalleryComponent&#45;&gt;AppModule</title>
<path fill="none" stroke="#000000" d="M1623.1885,-122.2396C1623.1885,-137.5706 1623.1885,-157 1623.1885,-157 1623.1885,-157 1492.7977,-157 1492.7977,-157"/>
<polygon fill="#000000" stroke="#000000" points="1492.7977,-153.5001 1482.7977,-157 1492.7977,-160.5001 1492.7977,-153.5001"/>
</g>
<!-- LineupComponent -->
<g id="node7" class="node">
<title>LineupComponent</title>
<polygon fill="#ffffb3" stroke="#000000" points="1569.4902,-122 1448.5098,-122 1448.5098,-86 1569.4902,-86 1569.4902,-122"/>
<text text-anchor="middle" x="1509" y="-99.8" font-family="Times,serif" font-size="14.00" fill="#000000">LineupComponent</text>
</g>
<!-- LineupComponent&#45;&gt;AppModule -->
<g id="edge7" class="edge">
<title>LineupComponent&#45;&gt;AppModule</title>
<path fill="none" stroke="#000000" d="M1465.6666,-122.2228C1465.6666,-122.2228 1465.6666,-143.7269 1465.6666,-143.7269"/>
<polygon fill="#000000" stroke="#000000" points="1462.1666,-143.7269 1465.6666,-153.7269 1469.1666,-143.727 1462.1666,-143.7269"/>
</g>
<!-- LoginComponent -->
<g id="node8" class="node">
<title>LoginComponent</title>
<polygon fill="#ffffb3" stroke="#000000" points="1430.2758,-122 1315.7242,-122 1315.7242,-86 1430.2758,-86 1430.2758,-122"/>
<text text-anchor="middle" x="1373" y="-99.8" font-family="Times,serif" font-size="14.00" fill="#000000">LoginComponent</text>
</g>
<!-- LoginComponent&#45;&gt;AppModule -->
<g id="edge8" class="edge">
<title>LoginComponent&#45;&gt;AppModule</title>
<path fill="none" stroke="#000000" d="M1414.7798,-122.2228C1414.7798,-122.2228 1414.7798,-143.7269 1414.7798,-143.7269"/>
<polygon fill="#000000" stroke="#000000" points="1411.2799,-143.7269 1414.7798,-153.7269 1418.2799,-143.727 1411.2799,-143.7269"/>
</g>
<!-- MixContestComponent -->
<g id="node9" class="node">
<title>MixContestComponent</title>
<polygon fill="#ffffb3" stroke="#000000" points="1297.9453,-122 1150.0547,-122 1150.0547,-86 1297.9453,-86 1297.9453,-122"/>
<text text-anchor="middle" x="1224" y="-99.8" font-family="Times,serif" font-size="14.00" fill="#000000">MixContestComponent</text>
</g>
<!-- MixContestComponent&#45;&gt;AppModule -->
<g id="edge9" class="edge">
<title>MixContestComponent&#45;&gt;AppModule</title>
<path fill="none" stroke="#000000" d="M1257.7386,-122.2396C1257.7386,-137.5706 1257.7386,-157 1257.7386,-157 1257.7386,-157 1388.9561,-157 1388.9561,-157"/>
<polygon fill="#000000" stroke="#000000" points="1388.9562,-160.5001 1398.9561,-157 1388.9561,-153.5001 1388.9562,-160.5001"/>
</g>
<!-- NotSupportedFileErrorDialog -->
<g id="node10" class="node">
<title>NotSupportedFileErrorDialog</title>
<polygon fill="#ffffb3" stroke="#000000" points="1131.9608,-122 948.0392,-122 948.0392,-86 1131.9608,-86 1131.9608,-122"/>
<text text-anchor="middle" x="1040" y="-99.8" font-family="Times,serif" font-size="14.00" fill="#000000">NotSupportedFileErrorDialog</text>
</g>
<!-- NotSupportedFileErrorDialog&#45;&gt;AppModule -->
<g id="edge10" class="edge">
<title>NotSupportedFileErrorDialog&#45;&gt;AppModule</title>
<path fill="none" stroke="#000000" d="M1090.2541,-122.027C1090.2541,-138.3976 1090.2541,-160 1090.2541,-160 1090.2541,-160 1389.0402,-160 1389.0402,-160"/>
<polygon fill="#000000" stroke="#000000" points="1389.0403,-163.5001 1399.0402,-160 1389.0402,-156.5001 1389.0403,-163.5001"/>
</g>
<!-- RegisterComponent -->
<g id="node11" class="node">
<title>RegisterComponent</title>
<polygon fill="#ffffb3" stroke="#000000" points="929.9846,-122 802.0154,-122 802.0154,-86 929.9846,-86 929.9846,-122"/>
<text text-anchor="middle" x="866" y="-99.8" font-family="Times,serif" font-size="14.00" fill="#000000">RegisterComponent</text>
</g>
<!-- RegisterComponent&#45;&gt;AppModule -->
<g id="edge11" class="edge">
<title>RegisterComponent&#45;&gt;AppModule</title>
<path fill="none" stroke="#000000" d="M905.6559,-122.0225C905.6559,-139.3734 905.6559,-163 905.6559,-163 905.6559,-163 1388.9924,-163 1388.9924,-163"/>
<polygon fill="#000000" stroke="#000000" points="1388.9925,-166.5001 1398.9924,-163 1388.9924,-159.5001 1388.9925,-166.5001"/>
</g>
<!-- TicketsInfoComponent -->
<g id="node12" class="node">
<title>TicketsInfoComponent</title>
<polygon fill="#ffffb3" stroke="#000000" points="783.8613,-122 638.1387,-122 638.1387,-86 783.8613,-86 783.8613,-122"/>
<text text-anchor="middle" x="711" y="-99.8" font-family="Times,serif" font-size="14.00" fill="#000000">TicketsInfoComponent</text>
</g>
<!-- TicketsInfoComponent&#45;&gt;AppModule -->
<g id="edge12" class="edge">
<title>TicketsInfoComponent&#45;&gt;AppModule</title>
<path fill="none" stroke="#000000" d="M711,-122.2667C711,-140.5552 711,-166 711,-166 711,-166 1389.1301,-166 1389.1301,-166"/>
<polygon fill="#000000" stroke="#000000" points="1389.1301,-169.5001 1399.1301,-166 1389.1301,-162.5001 1389.1301,-169.5001"/>
</g>
<!-- ArtistsComponent  -->
<g id="node16" class="node">
<title>ArtistsComponent </title>
<polygon fill="#fb8072" stroke="#000000" points="1799.1607,-258 1676.8393,-258 1676.8393,-222 1799.1607,-222 1799.1607,-258"/>
<text text-anchor="middle" x="1738" y="-235.8" font-family="Times,serif" font-size="14.00" fill="#000000">ArtistsComponent </text>
</g>
<!-- AppModule&#45;&gt;ArtistsComponent  -->
<g id="edge15" class="edge">
<title>AppModule&#45;&gt;ArtistsComponent </title>
<path fill="none" stroke="#000000" stroke-dasharray="5,2" d="M1482.6778,-182C1558.5643,-182 1711.5325,-182 1711.5325,-182 1711.5325,-182 1711.5325,-211.9664 1711.5325,-211.9664"/>
<polygon fill="#000000" stroke="#000000" points="1708.0325,-211.9663 1711.5325,-221.9664 1715.0325,-211.9664 1708.0325,-211.9663"/>
</g>
<!-- HomeComponent  -->
<g id="node17" class="node">
<title>HomeComponent </title>
<polygon fill="#fb8072" stroke="#000000" points="1658.5442,-258 1539.4558,-258 1539.4558,-222 1658.5442,-222 1658.5442,-258"/>
<text text-anchor="middle" x="1599" y="-235.8" font-family="Times,serif" font-size="14.00" fill="#000000">HomeComponent </text>
</g>
<!-- AppModule&#45;&gt;HomeComponent  -->
<g id="edge16" class="edge">
<title>AppModule&#45;&gt;HomeComponent </title>
<path fill="none" stroke="#000000" stroke-dasharray="5,2" d="M1482.9358,-185C1515.2638,-185 1554.4865,-185 1554.4865,-185 1554.4865,-185 1554.4865,-211.9909 1554.4865,-211.9909"/>
<polygon fill="#000000" stroke="#000000" points="1550.9866,-211.9909 1554.4865,-221.9909 1557.9866,-211.991 1550.9866,-211.9909"/>
</g>
<!-- ImageGalleryComponent  -->
<g id="node18" class="node">
<title>ImageGalleryComponent </title>
<polygon fill="#fb8072" stroke="#000000" points="1521.7905,-258 1360.2095,-258 1360.2095,-222 1521.7905,-222 1521.7905,-258"/>
<text text-anchor="middle" x="1441" y="-235.8" font-family="Times,serif" font-size="14.00" fill="#000000">ImageGalleryComponent </text>
</g>
<!-- AppModule&#45;&gt;ImageGalleryComponent  -->
<g id="edge17" class="edge">
<title>AppModule&#45;&gt;ImageGalleryComponent </title>
<path fill="none" stroke="#000000" stroke-dasharray="5,2" d="M1441,-190.2228C1441,-190.2228 1441,-211.7269 1441,-211.7269"/>
<polygon fill="#000000" stroke="#000000" points="1437.5001,-211.7269 1441,-221.7269 1444.5001,-211.727 1437.5001,-211.7269"/>
</g>
<!-- LineupComponent  -->
<g id="node19" class="node">
<title>LineupComponent </title>
<polygon fill="#fb8072" stroke="#000000" points="1342.4912,-258 1217.5088,-258 1217.5088,-222 1342.4912,-222 1342.4912,-258"/>
<text text-anchor="middle" x="1280" y="-235.8" font-family="Times,serif" font-size="14.00" fill="#000000">LineupComponent </text>
</g>
<!-- AppModule&#45;&gt;LineupComponent  -->
<g id="edge18" class="edge">
<title>AppModule&#45;&gt;LineupComponent </title>
<path fill="none" stroke="#000000" stroke-dasharray="5,2" d="M1399.2688,-187C1367.4053,-187 1328.9287,-187 1328.9287,-187 1328.9287,-187 1328.9287,-211.7604 1328.9287,-211.7604"/>
<polygon fill="#000000" stroke="#000000" points="1325.4287,-211.7604 1328.9287,-221.7604 1332.4287,-211.7604 1325.4287,-211.7604"/>
</g>
<!-- MixContestComponent  -->
<g id="node20" class="node">
<title>MixContestComponent </title>
<polygon fill="#fb8072" stroke="#000000" points="1199.4446,-258 1048.5554,-258 1048.5554,-222 1199.4446,-222 1199.4446,-258"/>
<text text-anchor="middle" x="1124" y="-235.8" font-family="Times,serif" font-size="14.00" fill="#000000">MixContestComponent </text>
</g>
<!-- AppModule&#45;&gt;MixContestComponent  -->
<g id="edge19" class="edge">
<title>AppModule&#45;&gt;MixContestComponent </title>
<path fill="none" stroke="#000000" stroke-dasharray="5,2" d="M1399.1252,-184C1324.1807,-184 1174.875,-184 1174.875,-184 1174.875,-184 1174.875,-211.973 1174.875,-211.973"/>
<polygon fill="#000000" stroke="#000000" points="1171.3751,-211.973 1174.875,-221.973 1178.3751,-211.973 1171.3751,-211.973"/>
</g>
<!-- TicketsInfoComponent  -->
<g id="node21" class="node">
<title>TicketsInfoComponent </title>
<polygon fill="#fb8072" stroke="#000000" points="1030.8616,-258 881.1384,-258 881.1384,-222 1030.8616,-222 1030.8616,-258"/>
<text text-anchor="middle" x="956" y="-235.8" font-family="Times,serif" font-size="14.00" fill="#000000">TicketsInfoComponent </text>
</g>
<!-- AppModule&#45;&gt;TicketsInfoComponent  -->
<g id="edge20" class="edge">
<title>AppModule&#45;&gt;TicketsInfoComponent </title>
<path fill="none" stroke="#000000" stroke-dasharray="5,2" d="M1399.3194,-181C1287.5096,-181 989.3501,-181 989.3501,-181 989.3501,-181 989.3501,-211.9775 989.3501,-211.9775"/>
<polygon fill="#000000" stroke="#000000" points="985.8502,-211.9774 989.3501,-221.9775 992.8502,-211.9775 985.8502,-211.9774"/>
</g>
<!-- AppComponent  -->
<g id="node22" class="node">
<title>AppComponent </title>
<polygon fill="#80b1d3" stroke="#000000" points="1931.439,-258 1822.561,-258 1822.561,-222 1931.439,-222 1931.439,-258"/>
<text text-anchor="middle" x="1877" y="-235.8" font-family="Times,serif" font-size="14.00" fill="#000000">AppComponent </text>
</g>
<!-- AppModule&#45;&gt;AppComponent  -->
<g id="edge21" class="edge">
<title>AppModule&#45;&gt;AppComponent </title>
<path fill="none" stroke="#000000" stroke-dasharray="1,5" d="M1482.9659,-179C1587.4997,-179 1851.1513,-179 1851.1513,-179 1851.1513,-179 1851.1513,-211.698 1851.1513,-211.698"/>
<polygon fill="#000000" stroke="#000000" points="1847.6514,-211.698 1851.1513,-221.698 1854.6514,-211.698 1847.6514,-211.698"/>
</g>
<!-- AppRoutingModule -->
<g id="node14" class="node">
<title>AppRoutingModule</title>
<polygon fill="#8dd3c7" stroke="#000000" points="2664.2744,-122 2661.2744,-126 2640.2744,-126 2637.2744,-122 2535.7256,-122 2535.7256,-86 2664.2744,-86 2664.2744,-122"/>
<text text-anchor="middle" x="2600" y="-99.8" font-family="Times,serif" font-size="14.00" fill="#000000">AppRoutingModule</text>
</g>
<!-- AppRoutingModule&#45;&gt;AppModule -->
<g id="edge13" class="edge">
<title>AppRoutingModule&#45;&gt;AppModule</title>
<path fill="none" stroke="#000000" d="M2600,-122.0267C2600,-142.7672 2600,-174 2600,-174 2600,-174 1492.9341,-174 1492.9341,-174"/>
<polygon fill="#000000" stroke="#000000" points="1492.9342,-170.5001 1482.9341,-174 1492.9341,-177.5001 1492.9342,-170.5001"/>
</g>
<!-- MapModule -->
<g id="node15" class="node">
<title>MapModule</title>
<polygon fill="#8dd3c7" stroke="#000000" points="2767.7093,-122 2764.7093,-126 2743.7093,-126 2740.7093,-122 2682.2907,-122 2682.2907,-86 2767.7093,-86 2767.7093,-122"/>
<text text-anchor="middle" x="2725" y="-99.8" font-family="Times,serif" font-size="14.00" fill="#000000">MapModule</text>
</g>
<!-- MapModule&#45;&gt;AppModule -->
<g id="edge14" class="edge">
<title>MapModule&#45;&gt;AppModule</title>
<path fill="none" stroke="#000000" d="M2710.7985,-122.0449C2710.7985,-143.6623 2710.7985,-177 2710.7985,-177 2710.7985,-177 1492.8868,-177 1492.8868,-177"/>
<polygon fill="#000000" stroke="#000000" points="1492.8868,-173.5001 1482.8868,-177 1492.8868,-180.5001 1492.8868,-173.5001"/>
</g>
<!-- MapComponent  -->
<g id="node28" class="node">
<title>MapComponent </title>
<polygon fill="#fb8072" stroke="#000000" points="2918.4927,-190 2807.5073,-190 2807.5073,-154 2918.4927,-154 2918.4927,-190"/>
<text text-anchor="middle" x="2863" y="-167.8" font-family="Times,serif" font-size="14.00" fill="#000000">MapComponent </text>
</g>
<!-- MapModule&#45;&gt;MapComponent  -->
<g id="edge27" class="edge">
<title>MapModule&#45;&gt;MapComponent </title>
<path fill="none" stroke="#000000" stroke-dasharray="5,2" d="M2739.2015,-122.2267C2739.2015,-146.9318 2739.2015,-188 2739.2015,-188 2739.2015,-188 2797.6184,-188 2797.6184,-188"/>
<polygon fill="#000000" stroke="#000000" points="2797.6185,-191.5001 2807.6184,-188 2797.6184,-184.5001 2797.6185,-191.5001"/>
</g>
<!-- ArtistsService -->
<g id="node23" class="node">
<title>ArtistsService</title>
<ellipse fill="#fdb462" stroke="#000000" cx="548" cy="-104" rx="65.9813" ry="18"/>
<text text-anchor="middle" x="548" y="-99.8" font-family="Times,serif" font-size="14.00" fill="#000000">ArtistsService</text>
</g>
<!-- ArtistsService&#45;&gt;AppModule -->
<g id="edge22" class="edge">
<title>ArtistsService&#45;&gt;AppModule</title>
<path fill="none" stroke="#000000" d="M548,-122.1061C548,-141.3391 548,-169 548,-169 548,-169 1389.1265,-169 1389.1265,-169"/>
<polygon fill="#000000" stroke="#000000" points="1389.1265,-172.5001 1399.1265,-169 1389.1265,-165.5001 1389.1265,-172.5001"/>
</g>
<!-- LineupService -->
<g id="node24" class="node">
<title>LineupService</title>
<ellipse fill="#fdb462" stroke="#000000" cx="397" cy="-104" rx="67.1946" ry="18"/>
<text text-anchor="middle" x="397" y="-99.8" font-family="Times,serif" font-size="14.00" fill="#000000">LineupService</text>
</g>
<!-- LineupService&#45;&gt;AppModule -->
<g id="edge23" class="edge">
<title>LineupService&#45;&gt;AppModule</title>
<path fill="none" stroke="#000000" d="M397,-122.2228C397,-142.3652 397,-172 397,-172 397,-172 1389.1059,-172 1389.1059,-172"/>
<polygon fill="#000000" stroke="#000000" points="1389.1059,-175.5001 1399.1059,-172 1389.1059,-168.5001 1389.1059,-175.5001"/>
</g>
<!-- LoginService -->
<g id="node25" class="node">
<title>LoginService</title>
<ellipse fill="#fdb462" stroke="#000000" cx="249" cy="-104" rx="63.1209" ry="18"/>
<text text-anchor="middle" x="249" y="-99.8" font-family="Times,serif" font-size="14.00" fill="#000000">LoginService</text>
</g>
<!-- LoginService&#45;&gt;AppModule -->
<g id="edge24" class="edge">
<title>LoginService&#45;&gt;AppModule</title>
<path fill="none" stroke="#000000" d="M249,-122.2843C249,-143.3211 249,-175 249,-175 249,-175 1389.275,-175 1389.275,-175"/>
<polygon fill="#000000" stroke="#000000" points="1389.2751,-178.5001 1399.275,-175 1389.275,-171.5001 1389.2751,-178.5001"/>
</g>
<!-- RegisterService -->
<g id="node26" class="node">
<title>RegisterService</title>
<ellipse fill="#fdb462" stroke="#000000" cx="96" cy="-104" rx="72.3439" ry="18"/>
<text text-anchor="middle" x="96" y="-99.8" font-family="Times,serif" font-size="14.00" fill="#000000">RegisterService</text>
</g>
<!-- RegisterService&#45;&gt;AppModule -->
<g id="edge25" class="edge">
<title>RegisterService&#45;&gt;AppModule</title>
<path fill="none" stroke="#000000" d="M96,-122.2921C96,-144.2057 96,-178 96,-178 96,-178 1389.2719,-178 1389.2719,-178"/>
<polygon fill="#000000" stroke="#000000" points="1389.272,-181.5001 1399.2719,-178 1389.2719,-174.5001 1389.272,-181.5001"/>
</g>
<!-- MapComponent -->
<g id="node27" class="node">
<title>MapComponent</title>
<polygon fill="#ffffb3" stroke="#000000" points="3048.4916,-190 2941.5084,-190 2941.5084,-154 3048.4916,-154 3048.4916,-190"/>
<text text-anchor="middle" x="2995" y="-167.8" font-family="Times,serif" font-size="14.00" fill="#000000">MapComponent</text>
</g>
<!-- MapComponent&#45;&gt;MapModule -->
<g id="edge26" class="edge">
<title>MapComponent&#45;&gt;MapModule</title>
<path fill="none" stroke="#000000" d="M2995,-153.7772C2995,-133.6348 2995,-104 2995,-104 2995,-104 2777.7823,-104 2777.7823,-104"/>
<polygon fill="#000000" stroke="#000000" points="2777.7823,-100.5001 2767.7823,-104 2777.7823,-107.5001 2777.7823,-100.5001"/>
</g>
</g>
</svg>
