<?xml version="1.0" encoding="UTF-8" standalone="no"?>
<!DOCTYPE svg PUBLIC "-//W3C//DTD SVG 1.1//EN"
 "http://www.w3.org/Graphics/SVG/1.1/DTD/svg11.dtd">
<!-- Generated by graphviz version 2.40.1 (20161225.0304)
 -->
<!-- Title: dependencies Pages: 1 -->
<svg width="2800pt" height="284pt"
 viewBox="0.00 0.00 2800.00 284.00" xmlns="http://www.w3.org/2000/svg" xmlns:xlink="http://www.w3.org/1999/xlink">
<g id="graph0" class="graph" transform="scale(1 1) rotate(0) translate(4 280)">
<title>dependencies</title>
<polygon fill="#ffffff" stroke="transparent" points="-4,4 -4,-280 2796,-280 2796,4 -4,4"/>
<text text-anchor="start" x="1375.0091" y="-42.4" font-family="sans-serif" font-weight="bold" font-size="14.00" fill="#000000">Legend</text>
<polygon fill="#ffffb3" stroke="transparent" points="1162,-10 1162,-30 1182,-30 1182,-10 1162,-10"/>
<text text-anchor="start" x="1185.629" y="-15.4" font-family="sans-serif" font-size="14.00" fill="#000000"> &#160;Declarations</text>
<polygon fill="#8dd3c7" stroke="transparent" points="1275,-10 1275,-30 1295,-30 1295,-10 1275,-10"/>
<text text-anchor="start" x="1298.7251" y="-15.4" font-family="sans-serif" font-size="14.00" fill="#000000"> &#160;Module</text>
<polygon fill="#80b1d3" stroke="transparent" points="1361,-10 1361,-30 1381,-30 1381,-10 1361,-10"/>
<text text-anchor="start" x="1384.7812" y="-15.4" font-family="sans-serif" font-size="14.00" fill="#000000"> &#160;Bootstrap</text>
<polygon fill="#fdb462" stroke="transparent" points="1458,-10 1458,-30 1478,-30 1478,-10 1458,-10"/>
<text text-anchor="start" x="1481.6732" y="-15.4" font-family="sans-serif" font-size="14.00" fill="#000000"> &#160;Providers</text>
<polygon fill="#fb8072" stroke="transparent" points="1554,-10 1554,-30 1574,-30 1574,-10 1554,-10"/>
<text text-anchor="start" x="1577.7258" y="-15.4" font-family="sans-serif" font-size="14.00" fill="#000000"> &#160;Exports</text>
<g id="clust1" class="cluster">
<title>cluster_AppModule</title>
<polygon fill="none" stroke="#000000" stroke-dasharray="1,5" points="8,-70 8,-268 2784,-268 2784,-70 8,-70"/>
</g>
<g id="clust2" class="cluster">
<title>cluster_AppModule_declarations</title>
<polygon fill="none" stroke="#000000" points="886,-78 886,-130 2776,-130 2776,-78 886,-78"/>
</g>
<g id="clust15" class="cluster">
<title>cluster_AppModule_imports</title>
<polygon fill="none" stroke="#000000" points="630,-78 630,-130 878,-130 878,-78 630,-78"/>
</g>
<g id="clust16" class="cluster">
<title>cluster_AppModule_exports</title>
<polygon fill="none" stroke="#000000" points="820,-208 820,-260 1754,-260 1754,-208 820,-208"/>
</g>
<g id="clust17" class="cluster">
<title>cluster_AppModule_bootstrap</title>
<polygon fill="none" stroke="#000000" points="1762,-208 1762,-260 1886,-260 1886,-208 1762,-208"/>
</g>
<g id="clust18" class="cluster">
<title>cluster_AppModule_providers</title>
<polygon fill="none" stroke="#000000" points="16,-78 16,-130 622,-130 622,-78 16,-78"/>
</g>
<!-- AppComponent -->
<g id="node1" class="node">
<title>AppComponent</title>
<polygon fill="#ffffb3" stroke="#000000" points="2767.9399,-122 2662.0601,-122 2662.0601,-86 2767.9399,-86 2767.9399,-122"/>
<text text-anchor="middle" x="2715" y="-99.8" font-family="Times,serif" font-size="14.00" fill="#000000">AppComponent</text>
</g>
<!-- AppModule -->
<g id="node13" class="node">
<title>AppModule</title>
<polygon fill="#8dd3c7" stroke="#000000" points="1429.6571,-187 1426.6571,-191 1405.6571,-191 1402.6571,-187 1346.3429,-187 1346.3429,-151 1429.6571,-151 1429.6571,-187"/>
<text text-anchor="middle" x="1388" y="-164.8" font-family="Times,serif" font-size="14.00" fill="#000000">AppModule</text>
</g>
<!-- AppComponent&#45;&gt;AppModule -->
<g id="edge1" class="edge">
<title>AppComponent&#45;&gt;AppModule</title>
<path fill="none" stroke="#000000" d="M2715,-122.2843C2715,-143.3211 2715,-175 2715,-175 2715,-175 1439.9062,-175 1439.9062,-175"/>
<polygon fill="#000000" stroke="#000000" points="1439.9062,-171.5001 1429.9062,-175 1439.9061,-178.5001 1439.9062,-171.5001"/>
</g>
<!-- ArtistsComponent -->
<g id="node2" class="node">
<title>ArtistsComponent</title>
<polygon fill="#ffffb3" stroke="#000000" points="2644.1611,-122 2525.8389,-122 2525.8389,-86 2644.1611,-86 2644.1611,-122"/>
<text text-anchor="middle" x="2585" y="-99.8" font-family="Times,serif" font-size="14.00" fill="#000000">ArtistsComponent</text>
</g>
<!-- ArtistsComponent&#45;&gt;AppModule -->
<g id="edge2" class="edge">
<title>ArtistsComponent&#45;&gt;AppModule</title>
<path fill="none" stroke="#000000" d="M2585,-122.2228C2585,-142.3652 2585,-172 2585,-172 2585,-172 1439.9,-172 1439.9,-172"/>
<polygon fill="#000000" stroke="#000000" points="1439.9,-168.5001 1429.9,-172 1439.9,-175.5001 1439.9,-168.5001"/>
</g>
<!-- ContactFormComponent -->
<g id="node3" class="node">
<title>ContactFormComponent</title>
<polygon fill="#ffffb3" stroke="#000000" points="2507.7133,-122 2352.2867,-122 2352.2867,-86 2507.7133,-86 2507.7133,-122"/>
<text text-anchor="middle" x="2430" y="-99.8" font-family="Times,serif" font-size="14.00" fill="#000000">ContactFormComponent</text>
</g>
<!-- ContactFormComponent&#45;&gt;AppModule -->
<g id="edge3" class="edge">
<title>ContactFormComponent&#45;&gt;AppModule</title>
<path fill="none" stroke="#000000" d="M2430,-122.1061C2430,-141.3391 2430,-169 2430,-169 2430,-169 1439.8139,-169 1439.8139,-169"/>
<polygon fill="#000000" stroke="#000000" points="1439.8139,-165.5001 1429.8139,-169 1439.8138,-172.5001 1439.8139,-165.5001"/>
</g>
<!-- CountdownTimerComponent -->
<g id="node4" class="node">
<title>CountdownTimerComponent</title>
<polygon fill="#ffffb3" stroke="#000000" points="2334.3752,-122 2153.6248,-122 2153.6248,-86 2334.3752,-86 2334.3752,-122"/>
<text text-anchor="middle" x="2244" y="-99.8" font-family="Times,serif" font-size="14.00" fill="#000000">CountdownTimerComponent</text>
</g>
<!-- CountdownTimerComponent&#45;&gt;AppModule -->
<g id="edge4" class="edge">
<title>CountdownTimerComponent&#45;&gt;AppModule</title>
<path fill="none" stroke="#000000" d="M2244,-122.2667C2244,-140.5552 2244,-166 2244,-166 2244,-166 1439.8661,-166 1439.8661,-166"/>
<polygon fill="#000000" stroke="#000000" points="1439.8662,-162.5001 1429.8661,-166 1439.8661,-169.5001 1439.8662,-162.5001"/>
</g>
<!-- HomeComponent -->
<g id="node5" class="node">
<title>HomeComponent</title>
<polygon fill="#ffffb3" stroke="#000000" points="2135.5451,-122 2020.4549,-122 2020.4549,-86 2135.5451,-86 2135.5451,-122"/>
<text text-anchor="middle" x="2078" y="-99.8" font-family="Times,serif" font-size="14.00" fill="#000000">HomeComponent</text>
</g>
<!-- HomeComponent&#45;&gt;AppModule -->
<g id="edge5" class="edge">
<title>HomeComponent&#45;&gt;AppModule</title>
<path fill="none" stroke="#000000" d="M2078,-122.0225C2078,-139.3734 2078,-163 2078,-163 2078,-163 1439.866,-163 1439.866,-163"/>
<polygon fill="#000000" stroke="#000000" points="1439.866,-159.5001 1429.866,-163 1439.8659,-166.5001 1439.866,-159.5001"/>
</g>
<!-- ImageGalleryComponent -->
<g id="node6" class="node">
<title>ImageGalleryComponent</title>
<polygon fill="#ffffb3" stroke="#000000" points="2002.2907,-122 1843.7093,-122 1843.7093,-86 2002.2907,-86 2002.2907,-122"/>
<text text-anchor="middle" x="1923" y="-99.8" font-family="Times,serif" font-size="14.00" fill="#000000">ImageGalleryComponent</text>
</g>
<!-- ImageGalleryComponent&#45;&gt;AppModule -->
<g id="edge6" class="edge">
<title>ImageGalleryComponent&#45;&gt;AppModule</title>
<path fill="none" stroke="#000000" d="M1861.1622,-122.027C1861.1622,-138.3976 1861.1622,-160 1861.1622,-160 1861.1622,-160 1439.99,-160 1439.99,-160"/>
<polygon fill="#000000" stroke="#000000" points="1439.99,-156.5001 1429.99,-160 1439.9899,-163.5001 1439.99,-156.5001"/>
</g>
<!-- LineupComponent -->
<g id="node7" class="node">
<title>LineupComponent</title>
<polygon fill="#ffffb3" stroke="#000000" points="1825.4902,-122 1704.5098,-122 1704.5098,-86 1825.4902,-86 1825.4902,-122"/>
<text text-anchor="middle" x="1765" y="-99.8" font-family="Times,serif" font-size="14.00" fill="#000000">LineupComponent</text>
</g>
<!-- LineupComponent&#45;&gt;AppModule -->
<g id="edge7" class="edge">
<title>LineupComponent&#45;&gt;AppModule</title>
<path fill="none" stroke="#000000" d="M1725.2926,-122.2396C1725.2926,-137.5706 1725.2926,-157 1725.2926,-157 1725.2926,-157 1439.697,-157 1439.697,-157"/>
<polygon fill="#000000" stroke="#000000" points="1439.697,-153.5001 1429.697,-157 1439.697,-160.5001 1439.697,-153.5001"/>
</g>
<!-- LoginComponent -->
<g id="node8" class="node">
<title>LoginComponent</title>
<polygon fill="#ffffb3" stroke="#000000" points="1686.2758,-122 1571.7242,-122 1571.7242,-86 1686.2758,-86 1686.2758,-122"/>
<text text-anchor="middle" x="1629" y="-99.8" font-family="Times,serif" font-size="14.00" fill="#000000">LoginComponent</text>
</g>
<!-- LoginComponent&#45;&gt;AppModule -->
<g id="edge8" class="edge">
<title>LoginComponent&#45;&gt;AppModule</title>
<path fill="none" stroke="#000000" d="M1588.5671,-122.0511C1588.5671,-136.373 1588.5671,-154 1588.5671,-154 1588.5671,-154 1440.0454,-154 1440.0454,-154"/>
<polygon fill="#000000" stroke="#000000" points="1440.0455,-150.5001 1430.0454,-154 1440.0454,-157.5001 1440.0455,-150.5001"/>
</g>
<!-- MixContestComponent -->
<g id="node9" class="node">
<title>MixContestComponent</title>
<polygon fill="#ffffb3" stroke="#000000" points="1553.9453,-122 1406.0547,-122 1406.0547,-86 1553.9453,-86 1553.9453,-122"/>
<text text-anchor="middle" x="1480" y="-99.8" font-family="Times,serif" font-size="14.00" fill="#000000">MixContestComponent</text>
</g>
<!-- MixContestComponent&#45;&gt;AppModule -->
<g id="edge9" class="edge">
<title>MixContestComponent&#45;&gt;AppModule</title>
<path fill="none" stroke="#000000" d="M1418.053,-122.1061C1418.053,-122.1061 1418.053,-140.991 1418.053,-140.991"/>
<polygon fill="#000000" stroke="#000000" points="1414.553,-140.9909 1418.053,-150.991 1421.553,-140.991 1414.553,-140.9909"/>
</g>
<!-- NotSupportedFileErrorDialog -->
<g id="node10" class="node">
<title>NotSupportedFileErrorDialog</title>
<polygon fill="#ffffb3" stroke="#000000" points="1387.9608,-122 1204.0392,-122 1204.0392,-86 1387.9608,-86 1387.9608,-122"/>
<text text-anchor="middle" x="1296" y="-99.8" font-family="Times,serif" font-size="14.00" fill="#000000">NotSupportedFileErrorDialog</text>
</g>
<!-- NotSupportedFileErrorDialog&#45;&gt;AppModule -->
<g id="edge10" class="edge">
<title>NotSupportedFileErrorDialog&#45;&gt;AppModule</title>
<path fill="none" stroke="#000000" d="M1367.0761,-122.1061C1367.0761,-122.1061 1367.0761,-140.991 1367.0761,-140.991"/>
<polygon fill="#000000" stroke="#000000" points="1363.5762,-140.9909 1367.0761,-150.991 1370.5762,-140.991 1363.5762,-140.9909"/>
</g>
<!-- RegisterComponent -->
<g id="node11" class="node">
<title>RegisterComponent</title>
<polygon fill="#ffffb3" stroke="#000000" points="1185.9846,-122 1058.0154,-122 1058.0154,-86 1185.9846,-86 1185.9846,-122"/>
<text text-anchor="middle" x="1122" y="-99.8" font-family="Times,serif" font-size="14.00" fill="#000000">RegisterComponent</text>
</g>
<!-- RegisterComponent&#45;&gt;AppModule -->
<g id="edge11" class="edge">
<title>RegisterComponent&#45;&gt;AppModule</title>
<path fill="none" stroke="#000000" d="M1175.3736,-122.0511C1175.3736,-136.373 1175.3736,-154 1175.3736,-154 1175.3736,-154 1336.2456,-154 1336.2456,-154"/>
<polygon fill="#000000" stroke="#000000" points="1336.2456,-157.5001 1346.2456,-154 1336.2455,-150.5001 1336.2456,-157.5001"/>
</g>
<!-- TicketsInfoComponent -->
<g id="node12" class="node">
<title>TicketsInfoComponent</title>
<polygon fill="#ffffb3" stroke="#000000" points="1039.8613,-122 894.1387,-122 894.1387,-86 1039.8613,-86 1039.8613,-122"/>
<text text-anchor="middle" x="967" y="-99.8" font-family="Times,serif" font-size="14.00" fill="#000000">TicketsInfoComponent</text>
</g>
<!-- TicketsInfoComponent&#45;&gt;AppModule -->
<g id="edge12" class="edge">
<title>TicketsInfoComponent&#45;&gt;AppModule</title>
<path fill="none" stroke="#000000" d="M1017.7291,-122.2396C1017.7291,-137.5706 1017.7291,-157 1017.7291,-157 1017.7291,-157 1336.245,-157 1336.245,-157"/>
<polygon fill="#000000" stroke="#000000" points="1336.245,-160.5001 1346.245,-157 1336.2449,-153.5001 1336.245,-160.5001"/>
</g>
<!-- ArtistsComponent  -->
<g id="node16" class="node">
<title>ArtistsComponent </title>
<polygon fill="#fb8072" stroke="#000000" points="1746.1607,-252 1623.8393,-252 1623.8393,-216 1746.1607,-216 1746.1607,-252"/>
<text text-anchor="middle" x="1685" y="-229.8" font-family="Times,serif" font-size="14.00" fill="#000000">ArtistsComponent </text>
</g>
<!-- AppModule&#45;&gt;ArtistsComponent  -->
<g id="edge15" class="edge">
<title>AppModule&#45;&gt;ArtistsComponent </title>
<path fill="none" stroke="#000000" stroke-dasharray="5,2" d="M1429.7428,-181C1504.8798,-181 1655.1538,-181 1655.1538,-181 1655.1538,-181 1655.1538,-205.7604 1655.1538,-205.7604"/>
<polygon fill="#000000" stroke="#000000" points="1651.6538,-205.7604 1655.1538,-215.7604 1658.6538,-205.7604 1651.6538,-205.7604"/>
</g>
<!-- HomeComponent  -->
<g id="node17" class="node">
<title>HomeComponent </title>
<polygon fill="#fb8072" stroke="#000000" points="1605.5442,-252 1486.4558,-252 1486.4558,-216 1605.5442,-216 1605.5442,-252"/>
<text text-anchor="middle" x="1546" y="-229.8" font-family="Times,serif" font-size="14.00" fill="#000000">HomeComponent </text>
</g>
<!-- AppModule&#45;&gt;HomeComponent  -->
<g id="edge16" class="edge">
<title>AppModule&#45;&gt;HomeComponent </title>
<path fill="none" stroke="#000000" stroke-dasharray="5,2" d="M1429.7973,-184C1468.4985,-184 1520.1001,-184 1520.1001,-184 1520.1001,-184 1520.1001,-205.9489 1520.1001,-205.9489"/>
<polygon fill="#000000" stroke="#000000" points="1516.6002,-205.9488 1520.1001,-215.9489 1523.6002,-205.9489 1516.6002,-205.9488"/>
</g>
<!-- ImageGalleryComponent  -->
<g id="node18" class="node">
<title>ImageGalleryComponent </title>
<polygon fill="#fb8072" stroke="#000000" points="1468.7905,-252 1307.2095,-252 1307.2095,-216 1468.7905,-216 1468.7905,-252"/>
<text text-anchor="middle" x="1388" y="-229.8" font-family="Times,serif" font-size="14.00" fill="#000000">ImageGalleryComponent </text>
</g>
<!-- AppModule&#45;&gt;ImageGalleryComponent  -->
<g id="edge17" class="edge">
<title>AppModule&#45;&gt;ImageGalleryComponent </title>
<path fill="none" stroke="#000000" stroke-dasharray="5,2" d="M1388,-187.1061C1388,-187.1061 1388,-205.991 1388,-205.991"/>
<polygon fill="#000000" stroke="#000000" points="1384.5001,-205.9909 1388,-215.991 1391.5001,-205.991 1384.5001,-205.9909"/>
</g>
<!-- LineupComponent  -->
<g id="node19" class="node">
<title>LineupComponent </title>
<polygon fill="#fb8072" stroke="#000000" points="1289.4912,-252 1164.5088,-252 1164.5088,-216 1289.4912,-216 1289.4912,-252"/>
<text text-anchor="middle" x="1227" y="-229.8" font-family="Times,serif" font-size="14.00" fill="#000000">LineupComponent </text>
</g>
<!-- AppModule&#45;&gt;LineupComponent  -->
<g id="edge18" class="edge">
<title>AppModule&#45;&gt;LineupComponent </title>
<path fill="none" stroke="#000000" stroke-dasharray="5,2" d="M1345.9678,-184C1304.2965,-184 1246.6324,-184 1246.6324,-184 1246.6324,-184 1246.6324,-205.9489 1246.6324,-205.9489"/>
<polygon fill="#000000" stroke="#000000" points="1243.1324,-205.9488 1246.6324,-215.9489 1250.1324,-205.9489 1243.1324,-205.9488"/>
</g>
<!-- MixContestComponent  -->
<g id="node20" class="node">
<title>MixContestComponent </title>
<polygon fill="#fb8072" stroke="#000000" points="1146.4446,-252 995.5554,-252 995.5554,-216 1146.4446,-216 1146.4446,-252"/>
<text text-anchor="middle" x="1071" y="-229.8" font-family="Times,serif" font-size="14.00" fill="#000000">MixContestComponent </text>
</g>
<!-- AppModule&#45;&gt;MixContestComponent  -->
<g id="edge19" class="edge">
<title>AppModule&#45;&gt;MixContestComponent </title>
<path fill="none" stroke="#000000" stroke-dasharray="5,2" d="M1346.142,-181C1266.7694,-181 1102.24,-181 1102.24,-181 1102.24,-181 1102.24,-205.7604 1102.24,-205.7604"/>
<polygon fill="#000000" stroke="#000000" points="1098.7401,-205.7604 1102.24,-215.7604 1105.7401,-205.7604 1098.7401,-205.7604"/>
</g>
<!-- TicketsInfoComponent  -->
<g id="node21" class="node">
<title>TicketsInfoComponent </title>
<polygon fill="#fb8072" stroke="#000000" points="977.8616,-252 828.1384,-252 828.1384,-216 977.8616,-216 977.8616,-252"/>
<text text-anchor="middle" x="903" y="-229.8" font-family="Times,serif" font-size="14.00" fill="#000000">TicketsInfoComponent </text>
</g>
<!-- AppModule&#45;&gt;TicketsInfoComponent  -->
<g id="edge20" class="edge">
<title>AppModule&#45;&gt;TicketsInfoComponent </title>
<path fill="none" stroke="#000000" stroke-dasharray="5,2" d="M1346.2756,-178C1234.3481,-178 935.875,-178 935.875,-178 935.875,-178 935.875,-205.973 935.875,-205.973"/>
<polygon fill="#000000" stroke="#000000" points="932.3751,-205.973 935.875,-215.973 939.3751,-205.973 932.3751,-205.973"/>
</g>
<!-- AppComponent  -->
<g id="node22" class="node">
<title>AppComponent </title>
<polygon fill="#80b1d3" stroke="#000000" points="1878.439,-252 1769.561,-252 1769.561,-216 1878.439,-216 1878.439,-252"/>
<text text-anchor="middle" x="1824" y="-229.8" font-family="Times,serif" font-size="14.00" fill="#000000">AppComponent </text>
</g>
<!-- AppModule&#45;&gt;AppComponent  -->
<g id="edge21" class="edge">
<title>AppModule&#45;&gt;AppComponent </title>
<path fill="none" stroke="#000000" stroke-dasharray="1,5" d="M1429.9006,-178C1534.2716,-178 1797.5128,-178 1797.5128,-178 1797.5128,-178 1797.5128,-205.973 1797.5128,-205.973"/>
<polygon fill="#000000" stroke="#000000" points="1794.0129,-205.973 1797.5128,-215.973 1801.0129,-205.973 1794.0129,-205.973"/>
</g>
<!-- AppRoutingModule -->
<g id="node14" class="node">
<title>AppRoutingModule</title>
<polygon fill="#8dd3c7" stroke="#000000" points="870.2744,-122 867.2744,-126 846.2744,-126 843.2744,-122 741.7256,-122 741.7256,-86 870.2744,-86 870.2744,-122"/>
<text text-anchor="middle" x="806" y="-99.8" font-family="Times,serif" font-size="14.00" fill="#000000">AppRoutingModule</text>
</g>
<!-- AppRoutingModule&#45;&gt;AppModule -->
<g id="edge13" class="edge">
<title>AppRoutingModule&#45;&gt;AppModule</title>
<path fill="none" stroke="#000000" d="M849.3533,-122.027C849.3533,-138.3976 849.3533,-160 849.3533,-160 849.3533,-160 1336.1815,-160 1336.1815,-160"/>
<polygon fill="#000000" stroke="#000000" points="1336.1815,-163.5001 1346.1815,-160 1336.1815,-156.5001 1336.1815,-163.5001"/>
</g>
<!-- MapModule -->
<g id="node15" class="node">
<title>MapModule</title>
<polygon fill="#8dd3c7" stroke="#000000" points="723.7093,-122 720.7093,-126 699.7093,-126 696.7093,-122 638.2907,-122 638.2907,-86 723.7093,-86 723.7093,-122"/>
<text text-anchor="middle" x="681" y="-99.8" font-family="Times,serif" font-size="14.00" fill="#000000">MapModule</text>
</g>
<!-- MapModule&#45;&gt;AppModule -->
<g id="edge14" class="edge">
<title>MapModule&#45;&gt;AppModule</title>
<path fill="none" stroke="#000000" d="M681,-122.0225C681,-139.3734 681,-163 681,-163 681,-163 1336.1527,-163 1336.1527,-163"/>
<polygon fill="#000000" stroke="#000000" points="1336.1527,-166.5001 1346.1527,-163 1336.1526,-159.5001 1336.1527,-166.5001"/>
</g>
<!-- ArtistsService -->
<g id="node23" class="node">
<title>ArtistsService</title>
<ellipse fill="#fdb462" stroke="#000000" cx="548" cy="-104" rx="65.9813" ry="18"/>
<text text-anchor="middle" x="548" y="-99.8" font-family="Times,serif" font-size="14.00" fill="#000000">ArtistsService</text>
</g>
<!-- ArtistsService&#45;&gt;AppModule -->
<g id="edge22" class="edge">
<title>ArtistsService&#45;&gt;AppModule</title>
<path fill="none" stroke="#000000" d="M548,-122.2667C548,-140.5552 548,-166 548,-166 548,-166 1336.0569,-166 1336.0569,-166"/>
<polygon fill="#000000" stroke="#000000" points="1336.0569,-169.5001 1346.0569,-166 1336.0568,-162.5001 1336.0569,-169.5001"/>
</g>
<!-- LineupService -->
<g id="node24" class="node">
<title>LineupService</title>
<ellipse fill="#fdb462" stroke="#000000" cx="397" cy="-104" rx="67.1946" ry="18"/>
<text text-anchor="middle" x="397" y="-99.8" font-family="Times,serif" font-size="14.00" fill="#000000">LineupService</text>
</g>
<!-- LineupService&#45;&gt;AppModule -->
<g id="edge23" class="edge">
<title>LineupService&#45;&gt;AppModule</title>
<path fill="none" stroke="#000000" d="M397,-122.1061C397,-141.3391 397,-169 397,-169 397,-169 1336.0509,-169 1336.0509,-169"/>
<polygon fill="#000000" stroke="#000000" points="1336.051,-172.5001 1346.0509,-169 1336.0509,-165.5001 1336.051,-172.5001"/>
</g>
<!-- LoginService -->
<g id="node25" class="node">
<title>LoginService</title>
<ellipse fill="#fdb462" stroke="#000000" cx="249" cy="-104" rx="63.1209" ry="18"/>
<text text-anchor="middle" x="249" y="-99.8" font-family="Times,serif" font-size="14.00" fill="#000000">LoginService</text>
</g>
<!-- LoginService&#45;&gt;AppModule -->
<g id="edge24" class="edge">
<title>LoginService&#45;&gt;AppModule</title>
<path fill="none" stroke="#000000" d="M249,-122.2228C249,-142.3652 249,-172 249,-172 249,-172 1336.1116,-172 1336.1116,-172"/>
<polygon fill="#000000" stroke="#000000" points="1336.1116,-175.5001 1346.1116,-172 1336.1115,-168.5001 1336.1116,-175.5001"/>
</g>
<!-- RegisterService -->
<g id="node26" class="node">
<title>RegisterService</title>
<ellipse fill="#fdb462" stroke="#000000" cx="96" cy="-104" rx="72.3439" ry="18"/>
<text text-anchor="middle" x="96" y="-99.8" font-family="Times,serif" font-size="14.00" fill="#000000">RegisterService</text>
</g>
<!-- RegisterService&#45;&gt;AppModule -->
<g id="edge25" class="edge">
<title>RegisterService&#45;&gt;AppModule</title>
<path fill="none" stroke="#000000" d="M96,-122.2843C96,-143.3211 96,-175 96,-175 96,-175 1336.1125,-175 1336.1125,-175"/>
<polygon fill="#000000" stroke="#000000" points="1336.1125,-178.5001 1346.1125,-175 1336.1125,-171.5001 1336.1125,-178.5001"/>
</g>
</g>
</svg>
